<svg width="202" height="43" viewBox="0 0 202 43" fill="none" xmlns="http://www.w3.org/2000/svg">
<path d="M12.636 31.22C13.536 31.22 14.292 31.112 14.904 30.896C15.516 30.68 16.002 30.392 16.362 30.032C16.734 29.672 16.998 29.252 17.154 28.772C17.322 28.292 17.406 27.782 17.406 27.242C17.406 26.678 17.316 26.174 17.136 25.73C16.956 25.274 16.674 24.89 16.29 24.578C15.906 24.254 15.408 24.008 14.796 23.84C14.196 23.672 13.47 23.588 12.618 23.588H7.74V31.22H12.636ZM7.74 12.716V20.24H11.592C13.248 20.24 14.496 19.94 15.336 19.34C16.188 18.74 16.614 17.786 16.614 16.478C16.614 15.122 16.23 14.156 15.462 13.58C14.694 13.004 13.494 12.716 11.862 12.716H7.74ZM11.862 8.972C13.566 8.972 15.024 9.134 16.236 9.458C17.448 9.782 18.438 10.244 19.206 10.844C19.986 11.444 20.556 12.17 20.916 13.022C21.276 13.874 21.456 14.834 21.456 15.902C21.456 16.514 21.366 17.102 21.186 17.666C21.006 18.218 20.724 18.74 20.34 19.232C19.968 19.712 19.488 20.15 18.9 20.546C18.324 20.942 17.634 21.278 16.83 21.554C20.406 22.358 22.194 24.29 22.194 27.35C22.194 28.454 21.984 29.474 21.564 30.41C21.144 31.346 20.532 32.156 19.728 32.84C18.924 33.512 17.934 34.04 16.758 34.424C15.582 34.808 14.238 35 12.726 35H2.898V8.972H11.862ZM57.0383 31.22C57.9383 31.22 58.6943 31.112 59.3063 30.896C59.9183 30.68 60.4043 30.392 60.7643 30.032C61.1363 29.672 61.4003 29.252 61.5563 28.772C61.7243 28.292 61.8083 27.782 61.8083 27.242C61.8083 26.678 61.7183 26.174 61.5383 25.73C61.3583 25.274 61.0763 24.89 60.6923 24.578C60.3083 24.254 59.8103 24.008 59.1983 23.84C58.5983 23.672 57.8723 23.588 57.0203 23.588H52.1423V31.22H57.0383ZM52.1423 12.716V20.24H55.9943C57.6503 20.24 58.8983 19.94 59.7383 19.34C60.5903 18.74 61.0163 17.786 61.0163 16.478C61.0163 15.122 60.6323 14.156 59.8643 13.58C59.0963 13.004 57.8963 12.716 56.2643 12.716H52.1423ZM56.2643 8.972C57.9683 8.972 59.4263 9.134 60.6383 9.458C61.8503 9.782 62.8403 10.244 63.6083 10.844C64.3883 11.444 64.9583 12.17 65.3183 13.022C65.6783 13.874 65.8583 14.834 65.8583 15.902C65.8583 16.514 65.7683 17.102 65.5883 17.666C65.4083 18.218 65.1263 18.74 64.7423 19.232C64.3703 19.712 63.8903 20.15 63.3023 20.546C62.7263 20.942 62.0363 21.278 61.2323 21.554C64.8083 22.358 66.5963 24.29 66.5963 27.35C66.5963 28.454 66.3863 29.474 65.9663 30.41C65.5463 31.346 64.9343 32.156 64.1303 32.84C63.3263 33.512 62.3363 34.04 61.1603 34.424C59.9843 34.808 58.6403 35 57.1283 35H47.3003V8.972H56.2643ZM95.8177 21.986C95.8177 23.894 95.4997 25.664 94.8637 27.296C94.2397 28.916 93.3517 30.32 92.1997 31.508C91.0477 32.696 89.6617 33.626 88.0417 34.298C86.4217 34.958 84.6217 35.288 82.6417 35.288C80.6737 35.288 78.8797 34.958 77.2597 34.298C75.6397 33.626 74.2477 32.696 73.0837 31.508C71.9317 30.32 71.0377 28.916 70.4017 27.296C69.7657 25.664 69.4477 23.894 69.4477 21.986C69.4477 20.078 69.7657 18.314 70.4017 16.694C71.0377 15.062 71.9317 13.652 73.0837 12.464C74.2477 11.276 75.6397 10.352 77.2597 9.692C78.8797 9.02 80.6737 8.684 82.6417 8.684C83.9617 8.684 85.2037 8.84 86.3677 9.152C87.5317 9.452 88.5997 9.884 89.5717 10.448C90.5437 11 91.4137 11.678 92.1817 12.482C92.9617 13.274 93.6217 14.162 94.1617 15.146C94.7017 16.13 95.1097 17.198 95.3857 18.35C95.6737 19.502 95.8177 20.714 95.8177 21.986ZM90.8677 21.986C90.8677 20.558 90.6757 19.28 90.2917 18.152C89.9077 17.012 89.3617 16.046 88.6537 15.254C87.9457 14.462 87.0817 13.856 86.0617 13.436C85.0537 13.016 83.9137 12.806 82.6417 12.806C81.3697 12.806 80.2237 13.016 79.2037 13.436C78.1957 13.856 77.3317 14.462 76.6117 15.254C75.9037 16.046 75.3577 17.012 74.9737 18.152C74.5897 19.28 74.3977 20.558 74.3977 21.986C74.3977 23.414 74.5897 24.698 74.9737 25.838C75.3577 26.966 75.9037 27.926 76.6117 28.718C77.3317 29.498 78.1957 30.098 79.2037 30.518C80.2237 30.938 81.3697 31.148 82.6417 31.148C83.9137 31.148 85.0537 30.938 86.0617 30.518C87.0817 30.098 87.9457 29.498 88.6537 28.718C89.3617 27.926 89.9077 26.966 90.2917 25.838C90.6757 24.698 90.8677 23.414 90.8677 21.986ZM108.53 22.058C109.418 22.058 110.192 21.95 110.852 21.734C111.512 21.506 112.058 21.188 112.49 20.78C112.934 20.36 113.264 19.856 113.48 19.268C113.696 18.668 113.804 18.002 113.804 17.27C113.804 16.574 113.696 15.944 113.48 15.38C113.264 14.816 112.94 14.336 112.508 13.94C112.076 13.544 111.53 13.244 110.87 13.04C110.21 12.824 109.43 12.716 108.53 12.716H104.912V22.058H108.53ZM108.53 8.972C110.27 8.972 111.776 9.176 113.048 9.584C114.32 9.992 115.37 10.562 116.198 11.294C117.026 12.026 117.638 12.902 118.034 13.922C118.442 14.942 118.646 16.058 118.646 17.27C118.646 18.53 118.436 19.688 118.016 20.744C117.596 21.788 116.966 22.688 116.126 23.444C115.286 24.2 114.23 24.788 112.958 25.208C111.698 25.628 110.222 25.838 108.53 25.838H104.912V35H100.07V8.972H108.53ZM139.831 31.22C140.731 31.22 141.487 31.112 142.099 30.896C142.711 30.68 143.197 30.392 143.557 30.032C143.929 29.672 144.193 29.252 144.349 28.772C144.517 28.292 144.601 27.782 144.601 27.242C144.601 26.678 144.511 26.174 144.331 25.73C144.151 25.274 143.869 24.89 143.485 24.578C143.101 24.254 142.603 24.008 141.991 23.84C141.391 23.672 140.665 23.588 139.813 23.588H134.935V31.22H139.831ZM134.935 12.716V20.24H138.787C140.443 20.24 141.691 19.94 142.531 19.34C143.383 18.74 143.809 17.786 143.809 16.478C143.809 15.122 143.425 14.156 142.657 13.58C141.889 13.004 140.689 12.716 139.057 12.716H134.935ZM139.057 8.972C140.761 8.972 142.219 9.134 143.431 9.458C144.643 9.782 145.633 10.244 146.401 10.844C147.181 11.444 147.751 12.17 148.111 13.022C148.471 13.874 148.651 14.834 148.651 15.902C148.651 16.514 148.561 17.102 148.381 17.666C148.201 18.218 147.919 18.74 147.535 19.232C147.163 19.712 146.683 20.15 146.095 20.546C145.519 20.942 144.829 21.278 144.025 21.554C147.601 22.358 149.389 24.29 149.389 27.35C149.389 28.454 149.179 29.474 148.759 30.41C148.339 31.346 147.727 32.156 146.923 32.84C146.119 33.512 145.129 34.04 143.953 34.424C142.777 34.808 141.433 35 139.921 35H130.093V8.972H139.057ZM201.043 12.95H193.195V35H188.353V12.95H180.505V8.972H201.043V12.95Z" fill="#252424"/>
<path d="M31.4533 12.824V20.042H40.5613V23.768H31.4533V31.13H43.0093V35H26.5933V8.972H43.0093V12.824H31.4533Z" fill="#FF002A"/>
<path d="M178.611 21.986C178.611 23.894 178.293 25.664 177.657 27.296C177.033 28.916 176.145 30.32 174.993 31.508C173.841 32.696 172.455 33.626 170.835 34.298C169.215 34.958 167.415 35.288 165.435 35.288C163.467 35.288 161.673 34.958 160.053 34.298C158.433 33.626 157.041 32.696 155.877 31.508C154.725 30.32 153.831 28.916 153.195 27.296C152.559 25.664 152.241 23.894 152.241 21.986C152.241 20.078 152.559 18.314 153.195 16.694C153.831 15.062 154.725 13.652 155.877 12.464C157.041 11.276 158.433 10.352 160.053 9.692C161.673 9.02 163.467 8.684 165.435 8.684C166.755 8.684 167.997 8.84 169.161 9.152C170.325 9.452 171.393 9.884 172.365 10.448C173.337 11 174.207 11.678 174.975 12.482C175.755 13.274 176.415 14.162 176.955 15.146C177.495 16.13 177.903 17.198 178.179 18.35C178.467 19.502 178.611 20.714 178.611 21.986ZM173.661 21.986C173.661 20.558 173.469 19.28 173.085 18.152C172.701 17.012 172.155 16.046 171.447 15.254C170.739 14.462 169.875 13.856 168.855 13.436C167.847 13.016 166.707 12.806 165.435 12.806C164.163 12.806 163.017 13.016 161.997 13.436C160.989 13.856 160.125 14.462 159.405 15.254C158.697 16.046 158.151 17.012 157.767 18.152C157.383 19.28 157.191 20.558 157.191 21.986C157.191 23.414 157.383 24.698 157.767 25.838C158.151 26.966 158.697 27.926 159.405 28.718C160.125 29.498 160.989 30.098 161.997 30.518C163.017 30.938 164.163 31.148 165.435 31.148C166.707 31.148 167.847 30.938 168.855 30.518C169.875 30.098 170.739 29.498 171.447 28.718C172.155 27.926 172.701 26.966 173.085 25.838C173.469 24.698 173.661 23.414 173.661 21.986Z" fill="#17ADFF"/>
<path d="M82 11V5" stroke="#252424" stroke-width="3" stroke-linecap="round" stroke-linejoin="round"/>
<path d="M80 21.8926C80.5523 21.8926 81 21.4689 81 20.9463C81 20.4237 80.5523 20 80 20C79.4477 20 79 20.4237 79 20.9463C79 21.4689 79.4477 21.8926 80 21.8926Z" fill="black"/>
<path d="M86 21.8926C86.5523 21.8926 87 21.4689 87 20.9463C87 20.4237 86.5523 20 86 20C85.4477 20 85 20.4237 85 20.9463C85 21.4689 85.4477 21.8926 86 21.8926Z" fill="black"/>
</svg>
