<svg width="112" height="22" viewBox="0 0 112 22" fill="none" xmlns="http://www.w3.org/2000/svg">
<path d="M7.02 17.9C7.52 17.9 7.94 17.84 8.28 17.72C8.62 17.6 8.89 17.44 9.09 17.24C9.29667 17.04 9.44333 16.8067 9.53 16.54C9.62333 16.2733 9.67 15.99 9.67 15.69C9.67 15.3767 9.62 15.0967 9.52 14.85C9.42 14.5967 9.26333 14.3833 9.05 14.21C8.83667 14.03 8.56 13.8933 8.22 13.8C7.88667 13.7067 7.48333 13.66 7.01 13.66H4.3V17.9H7.02ZM4.3 7.62V11.8H6.44C7.36 11.8 8.05333 11.6333 8.52 11.3C8.99333 10.9667 9.23 10.4367 9.23 9.71C9.23 8.95667 9.01667 8.42 8.59 8.1C8.16333 7.78 7.49667 7.62 6.59 7.62H4.3ZM6.59 5.54C7.53667 5.54 8.34667 5.63 9.02 5.81C9.69333 5.99 10.2433 6.24667 10.67 6.58C11.1033 6.91333 11.42 7.31667 11.62 7.79C11.82 8.26333 11.92 8.79667 11.92 9.39C11.92 9.73 11.87 10.0567 11.77 10.37C11.67 10.6767 11.5133 10.9667 11.3 11.24C11.0933 11.5067 10.8267 11.75 10.5 11.97C10.18 12.19 9.79667 12.3767 9.35 12.53C11.3367 12.9767 12.33 14.05 12.33 15.75C12.33 16.3633 12.2133 16.93 11.98 17.45C11.7467 17.97 11.4067 18.42 10.96 18.8C10.5133 19.1733 9.96333 19.4667 9.31 19.68C8.65667 19.8933 7.91 20 7.07 20H1.61V5.54H6.59ZM31.688 17.9C32.188 17.9 32.608 17.84 32.948 17.72C33.288 17.6 33.558 17.44 33.758 17.24C33.9646 17.04 34.1113 16.8067 34.198 16.54C34.2913 16.2733 34.338 15.99 34.338 15.69C34.338 15.3767 34.288 15.0967 34.188 14.85C34.088 14.5967 33.9313 14.3833 33.718 14.21C33.5046 14.03 33.228 13.8933 32.888 13.8C32.5546 13.7067 32.1513 13.66 31.678 13.66H28.968V17.9H31.688ZM28.968 7.62V11.8H31.108C32.028 11.8 32.7213 11.6333 33.188 11.3C33.6613 10.9667 33.898 10.4367 33.898 9.71C33.898 8.95667 33.6846 8.42 33.258 8.1C32.8313 7.78 32.1646 7.62 31.258 7.62H28.968ZM31.258 5.54C32.2046 5.54 33.0146 5.63 33.688 5.81C34.3613 5.99 34.9113 6.24667 35.338 6.58C35.7713 6.91333 36.088 7.31667 36.288 7.79C36.488 8.26333 36.588 8.79667 36.588 9.39C36.588 9.73 36.538 10.0567 36.438 10.37C36.338 10.6767 36.1813 10.9667 35.968 11.24C35.7613 11.5067 35.4946 11.75 35.168 11.97C34.848 12.19 34.4646 12.3767 34.018 12.53C36.0046 12.9767 36.998 14.05 36.998 15.75C36.998 16.3633 36.8813 16.93 36.648 17.45C36.4146 17.97 36.0746 18.42 35.628 18.8C35.1813 19.1733 34.6313 19.4667 33.978 19.68C33.3246 19.8933 32.578 20 31.738 20H26.278V5.54H31.258ZM53.232 12.77C53.232 13.83 53.0554 14.8133 52.702 15.72C52.3554 16.62 51.862 17.4 51.222 18.06C50.582 18.72 49.812 19.2367 48.912 19.61C48.012 19.9767 47.012 20.16 45.912 20.16C44.8187 20.16 43.822 19.9767 42.922 19.61C42.022 19.2367 41.2487 18.72 40.602 18.06C39.962 17.4 39.4654 16.62 39.112 15.72C38.7587 14.8133 38.582 13.83 38.582 12.77C38.582 11.71 38.7587 10.73 39.112 9.83C39.4654 8.92333 39.962 8.14 40.602 7.48C41.2487 6.82 42.022 6.30667 42.922 5.94C43.822 5.56667 44.8187 5.38 45.912 5.38C46.6454 5.38 47.3354 5.46667 47.982 5.64C48.6287 5.80667 49.222 6.04667 49.762 6.36C50.302 6.66667 50.7854 7.04333 51.212 7.49C51.6454 7.93 52.012 8.42333 52.312 8.97C52.612 9.51667 52.8387 10.11 52.992 10.75C53.152 11.39 53.232 12.0633 53.232 12.77ZM50.482 12.77C50.482 11.9767 50.3754 11.2667 50.162 10.64C49.9487 10.0067 49.6454 9.47 49.252 9.03C48.8587 8.59 48.3787 8.25333 47.812 8.02C47.252 7.78667 46.6187 7.67 45.912 7.67C45.2054 7.67 44.5687 7.78667 44.002 8.02C43.442 8.25333 42.962 8.59 42.562 9.03C42.1687 9.47 41.8654 10.0067 41.652 10.64C41.4387 11.2667 41.332 11.9767 41.332 12.77C41.332 13.5633 41.4387 14.2767 41.652 14.91C41.8654 15.5367 42.1687 16.07 42.562 16.51C42.962 16.9433 43.442 17.2767 44.002 17.51C44.5687 17.7433 45.2054 17.86 45.912 17.86C46.6187 17.86 47.252 17.7433 47.812 17.51C48.3787 17.2767 48.8587 16.9433 49.252 16.51C49.6454 16.07 49.9487 15.5367 50.162 14.91C50.3754 14.2767 50.482 13.5633 50.482 12.77ZM60.2944 12.81C60.7877 12.81 61.2177 12.75 61.5844 12.63C61.951 12.5033 62.2544 12.3267 62.4944 12.1C62.741 11.8667 62.9244 11.5867 63.0444 11.26C63.1644 10.9267 63.2244 10.5567 63.2244 10.15C63.2244 9.76333 63.1644 9.41333 63.0444 9.1C62.9244 8.78667 62.7444 8.52 62.5044 8.3C62.2644 8.08 61.961 7.91333 61.5944 7.8C61.2277 7.68 60.7944 7.62 60.2944 7.62H58.2844V12.81H60.2944ZM60.2944 5.54C61.261 5.54 62.0977 5.65333 62.8044 5.88C63.511 6.10667 64.0944 6.42333 64.5544 6.83C65.0144 7.23667 65.3544 7.72333 65.5744 8.29C65.801 8.85667 65.9144 9.47667 65.9144 10.15C65.9144 10.85 65.7977 11.4933 65.5644 12.08C65.331 12.66 64.981 13.16 64.5144 13.58C64.0477 14 63.461 14.3267 62.7544 14.56C62.0544 14.7933 61.2344 14.91 60.2944 14.91H58.2844V20H55.5944V5.54H60.2944ZM77.6841 17.9C78.1841 17.9 78.6041 17.84 78.9441 17.72C79.2841 17.6 79.5541 17.44 79.7541 17.24C79.9607 17.04 80.1074 16.8067 80.1941 16.54C80.2874 16.2733 80.3341 15.99 80.3341 15.69C80.3341 15.3767 80.2841 15.0967 80.1841 14.85C80.0841 14.5967 79.9274 14.3833 79.7141 14.21C79.5007 14.03 79.2241 13.8933 78.8841 13.8C78.5507 13.7067 78.1474 13.66 77.6741 13.66H74.9641V17.9H77.6841ZM74.9641 7.62V11.8H77.1041C78.0241 11.8 78.7174 11.6333 79.1841 11.3C79.6574 10.9667 79.8941 10.4367 79.8941 9.71C79.8941 8.95667 79.6807 8.42 79.2541 8.1C78.8274 7.78 78.1607 7.62 77.2541 7.62H74.9641ZM77.2541 5.54C78.2007 5.54 79.0107 5.63 79.6841 5.81C80.3574 5.99 80.9074 6.24667 81.3341 6.58C81.7674 6.91333 82.0841 7.31667 82.2841 7.79C82.4841 8.26333 82.5841 8.79667 82.5841 9.39C82.5841 9.73 82.5341 10.0567 82.4341 10.37C82.3341 10.6767 82.1774 10.9667 81.9641 11.24C81.7574 11.5067 81.4907 11.75 81.1641 11.97C80.8441 12.19 80.4607 12.3767 80.0141 12.53C82.0007 12.9767 82.9941 14.05 82.9941 15.75C82.9941 16.3633 82.8774 16.93 82.6441 17.45C82.4107 17.97 82.0707 18.42 81.6241 18.8C81.1774 19.1733 80.6274 19.4667 79.9741 19.68C79.3207 19.8933 78.5741 20 77.7341 20H72.2741V5.54H77.2541ZM111.69 7.75H107.33V20H104.64V7.75H100.28V5.54H111.69V7.75Z" fill="#252424"/>
<path d="M17.4741 7.68V11.69H22.5341V13.76H17.4741V17.85H23.8941V20H14.7741V5.54H23.8941V7.68H17.4741Z" fill="#FF002A"/>
<path d="M99.2281 12.77C99.2281 13.83 99.0515 14.8133 98.6981 15.72C98.3515 16.62 97.8581 17.4 97.2181 18.06C96.5781 18.72 95.8081 19.2367 94.9081 19.61C94.0081 19.9767 93.0081 20.16 91.9081 20.16C90.8148 20.16 89.8181 19.9767 88.9181 19.61C88.0181 19.2367 87.2448 18.72 86.5981 18.06C85.9581 17.4 85.4615 16.62 85.1081 15.72C84.7548 14.8133 84.5781 13.83 84.5781 12.77C84.5781 11.71 84.7548 10.73 85.1081 9.83C85.4615 8.92333 85.9581 8.14 86.5981 7.48C87.2448 6.82 88.0181 6.30667 88.9181 5.94C89.8181 5.56667 90.8148 5.38 91.9081 5.38C92.6415 5.38 93.3315 5.46667 93.9781 5.64C94.6248 5.80667 95.2181 6.04667 95.7581 6.36C96.2981 6.66667 96.7815 7.04333 97.2081 7.49C97.6415 7.93 98.0081 8.42333 98.3081 8.97C98.6081 9.51667 98.8348 10.11 98.9881 10.75C99.1481 11.39 99.2281 12.0633 99.2281 12.77ZM96.4781 12.77C96.4781 11.9767 96.3715 11.2667 96.1581 10.64C95.9448 10.0067 95.6415 9.47 95.2481 9.03C94.8548 8.59 94.3748 8.25333 93.8081 8.02C93.2481 7.78667 92.6148 7.67 91.9081 7.67C91.2015 7.67 90.5648 7.78667 89.9981 8.02C89.4381 8.25333 88.9581 8.59 88.5581 9.03C88.1648 9.47 87.8615 10.0067 87.6481 10.64C87.4348 11.2667 87.3281 11.9767 87.3281 12.77C87.3281 13.5633 87.4348 14.2767 87.6481 14.91C87.8615 15.5367 88.1648 16.07 88.5581 16.51C88.9581 16.9433 89.4381 17.2767 89.9981 17.51C90.5648 17.7433 91.2015 17.86 91.9081 17.86C92.6148 17.86 93.2481 17.7433 93.8081 17.51C94.3748 17.2767 94.8548 16.9433 95.2481 16.51C95.6415 16.07 95.9448 15.5367 96.1581 14.91C96.3715 14.2767 96.4781 13.5633 96.4781 12.77Z" fill="#17ADFF"/>
<path d="M46 5.85V3" stroke="#252424" stroke-width="2" stroke-linecap="round" stroke-linejoin="round"/>
<path d="M43.75 12.0251C44.1642 12.0251 44.5 11.7061 44.5 11.3126C44.5 10.9191 44.1642 10.6001 43.75 10.6001C43.3358 10.6001 43 10.9191 43 11.3126C43 11.7061 43.3358 12.0251 43.75 12.0251Z" fill="black"/>
<path d="M47.75 12.0251C48.1642 12.0251 48.5 11.7061 48.5 11.3126C48.5 10.9191 48.1642 10.6001 47.75 10.6001C47.3358 10.6001 47 10.9191 47 11.3126C47 11.7061 47.3358 12.0251 47.75 12.0251Z" fill="black"/>
</svg>
